<?xml version="1.0" encoding="UTF-8"?>
<svg width="141px" height="109px" viewBox="0 0 141 109" version="1.1" xmlns="http://www.w3.org/2000/svg" xmlns:xlink="http://www.w3.org/1999/xlink">
    <!-- Generator: Sketch 54.1 (76490) - https://sketchapp.com -->
    <title>logoExFest</title>
    <desc>Created with Sketch.</desc>
    <g id="ETXWeb" stroke="none" stroke-width="1" fill="none" fill-rule="evenodd">
        <g id="logoExFest" fill="#FFFFFF" fill-rule="nonzero">
            <path d="M139.2,69 C142.8,59.2 140.2,50.5 134.4,42.5 C130.9,37.8 126.8,33.5 122.8,29.1 C121.4,27.6 120.8,26.2 121.9,24.3 C122.3,23.5 122.4,22.6 122.5,21.7 C124,12.6 117.4,3.8 108.4,1.2 C102.3,-0.5 96.4,0.3 90.5,2.3 C83.9,4.5 78,7.9 72.5,12 L72.5,12 C68.2,15.3 64,18.9 59.9,22.9 L59.8,23 C59.6,22.8 59.4,22.7 59.1,22.6 C59,22.6 58.9,22.5 58.8,22.4 L58.6,22.3 C58,21.9 57.3,21.5 56.6,21.2 L56.3,21 C55.5,20.6 54.7,20.3 54,20 L53.9,20 C53.9,20 53.8,20 53.8,20 C50.6,18.8 47.3,18.1 44,18 C43,18 42,18 41.1,18.1 C34.6,18.6 28.6,21.3 24,25.9 C21.8,28.2 19.9,30.8 18.7,33.6 C18.3,34.4 17.9,35.3 17.6,36.2 C17.3,37.1 17,38 16.9,38.8 C16.9,38.9 16.9,39 16.9,39 L8.3,36.8 C7.9,36.7 7.5,36.8 7.1,37 C6.7,37.2 6.5,37.6 6.4,38 L1.9,55.2 C1.8,55.6 1.9,56 2.1,56.4 C2.3,56.8 2.7,57 3.1,57.1 L3.6,57.2 L0.6,68.8 C0.5,69.2 0.6,69.6 0.8,69.9 C1,70.2 1.3,70.5 1.7,70.6 L21.1,75.6 C21.2,75.6 21.3,75.6 21.5,75.6 C22.1,75.6 22.7,75.2 22.9,74.5 L25.9,62.9 L26.4,63 C26.5,63 26.7,63 26.8,63 C27.5,63 28.1,62.5 28.3,61.8 L32.8,44.6 C33,43.8 32.5,42.9 31.7,42.7 L25.2,41 C25.2,41 25.2,41 25.2,41 C25.2,40.9 25.2,40.8 25.3,40.8 L25.4,40.5 C25.5,40 25.7,39.4 25.9,38.7 C26.1,38.1 26.3,37.5 26.6,36.9 C27.5,35 28.7,33.2 30.2,31.7 C33.3,28.6 37.4,26.7 42,26.4 C42.6,26.3 43.3,26.3 44,26.3 C46.3,26.3 48.7,26.8 50.9,27.7 L51,28 C51.4,28.2 51.9,28.4 52.4,28.6 C52.5,28.6 52.6,28.7 52.7,28.7 C53.1,28.9 53.4,29.1 53.7,29.3 C45.4,38.5 38.9,48.1 34.4,57.6 C34.4,57.6 34.4,57.6 34.4,57.6 C33.5,60.1 32.8,62.7 32.4,65.4 C31.4,72.3 32.3,78.8 37.2,84.3 C42.2,89.9 48.3,92.4 55.6,90.1 C58.2,89.3 59.7,89.8 61.5,91.5 C67.2,97.1 72.9,102.6 80.2,106.1 C84.4,108.2 88.8,109.2 93.6,108.9 C98.1,108.6 102.2,106.8 106.4,105.4 C110.3,104.2 114.2,102.7 118.2,101.7 C122.1,100.7 126,101.1 129.7,102.9 C131.8,103.9 133.2,103.7 134.4,102.4 C135.6,101.2 135.8,99.6 134.9,98 C132.8,94.1 132.5,90.1 133.7,86 C135.3,80.3 137.2,74.6 139.2,69 Z M21.8,71.5 C21.7,71.8 21.5,72.2 21.2,72.3 C21,72.4 20.7,72.5 20.5,72.5 C20.4,72.5 20.3,72.5 20.1,72.5 L4.3,68.4 C4.1,68.4 4,68.3 3.9,68.2 C3.9,68.2 3.9,68.2 3.9,68.2 L3.7,68.2 L3.7,68.1 C3.3,67.8 3.2,67.2 3.3,66.7 L5.6,57.8 L6.3,58 L6.3,58 L21.4,61.9 L21.4,61.9 L24.1,62.6 L21.8,71.5 Z M28.3,44.5 C28.6,44.6 28.9,44.8 29,45.1 C29.2,45.4 29.2,45.7 29.1,46 L25.7,59 L25.6,59.4 C25.5,60 25,60.3 24.4,60.3 C24.3,60.3 24.2,60.3 24.1,60.3 L6.1,55.6 C5.8,55.5 5.5,55.3 5.4,55 C5.2,54.7 5.2,54.4 5.3,54.1 L5.4,53.7 L8.8,40.7 C9,40 9.6,39.7 10.3,39.8 L16.9,41.5 L23.8,43.3 L28.3,44.5 Z M108.7,18.6 C109.4,16.2 110.3,13.9 111.1,11.5 C111.2,11.3 111.3,11.2 111.5,10.9 C114.5,12.4 116.6,18 115.3,21.2 C113.3,20.8 111.3,20.4 109.3,19.9 C109,19.8 108.5,19 108.7,18.6 Z M87.5,11 C93.8,8.1 100.1,6 107.2,8.2 C108.3,8.6 108.6,9.3 108.3,10.1 C107.6,12.7 106.9,15.4 105.9,17.9 C105.1,19.8 104.3,19.8 102.8,18.5 C98.8,14.9 94.2,12.8 88.9,11.9 C88.4,11.8 87.9,11.7 87.4,11.5 C87.5,11.4 87.5,11.2 87.5,11 Z M84.8,14.5 C89,14.3 93,15.3 96.6,17.5 C97.7,18.2 98.9,18.8 100,19.5 C101,20.6 100.9,21.1 99.6,21.5 C94.4,23.3 89.7,26 85.3,29.3 C82.4,31.5 79.6,33.8 76.7,36 C76.2,36.4 75.6,36.5 75,36.8 C74.9,36.2 74.6,35.6 74.7,35 C75.2,28.7 77.3,22.8 80.1,17.2 C81.3,15.1 82.8,14.6 84.8,14.5 Z M76.1,18 C76.2,18.1 76.4,18.2 76.5,18.3 C75.7,20.5 75,22.6 74.2,24.7 C72.6,29.1 71.9,33.7 71.9,38.4 C71.9,39.4 71.7,40.2 70.5,40.1 C63.6,40 57.2,41.8 50.9,44.4 C50.6,44.5 50.3,44.6 50,44.7 C49.9,44.6 49.8,44.4 49.7,44.3 C57.4,34.4 66.1,25.6 76.1,18 Z M40.1,75.6 C38.5,71.6 38.9,67.4 39.9,63.3 C40.6,60.7 41.7,58.2 42.6,55.6 C42.8,55.6 43.1,55.7 43.3,55.7 C43.4,56.1 43.6,56.6 43.7,57 C44.5,62.5 46.8,67.2 50.5,71.3 C51.6,72.5 51.7,73.3 50.1,73.9 C47.3,75 44.5,75.8 41.6,76.6 C41.2,76.7 40.3,76.1 40.1,75.6 Z M42.5,79.6 C44.5,79 46.3,78.4 48.1,77.8 C51.3,76.7 51.3,76.7 52,80 C52.2,81.1 52.7,82.2 53,83.3 C50.1,84.8 44.6,83 42.5,79.6 Z M53.4,67.7 C52.9,69.2 52.3,69.5 51.5,68.4 C47.5,63.2 45.3,57.5 46.6,50.9 C46.7,50.3 47.2,49.6 47.7,49.3 C53.1,46.3 58.9,44.1 65.1,43.3 C66.3,43.1 67.5,43.1 68.7,43 C68.8,43.1 68.9,43.3 68.9,43.4 C68.5,44 68.2,44.5 67.8,45.1 C65.1,48.5 62.3,51.8 59.8,55.4 C57.2,59.1 54.9,63.2 53.4,67.7 Z M132.2,68 C130.2,74.3 128.2,80.5 126.3,86.9 C125.8,88.7 125.9,90.7 126,92.7 C126,94 125.8,94.6 124.3,94.4 C120.2,94 116.2,95 112.3,96.1 C111.4,96.3 110.2,96.3 109.4,95.9 C104.6,93.4 100.1,90.5 96.2,86.8 C96,86.7 95.9,86.5 95.7,86.4 C95,85.8 94.3,85.2 93.5,86.1 C92.7,86.9 93.1,87.7 93.8,88.3 C95.3,89.6 96.7,90.9 98.2,92 C100.8,93.9 103.5,95.7 106.6,97.9 C105.5,98.4 104.6,98.8 103.8,99.1 C100.7,100.1 97.7,101.2 94.6,101.9 C90.3,102.8 86.3,101.5 82.5,99.6 C75.8,96.2 70.6,90.8 65.1,85.9 C63.5,84.4 61.9,82.9 60.3,81.4 C58.5,79.6 58.3,77.4 58.7,74.6 C59.6,75.3 60.2,75.7 60.8,76.2 C67.5,82.1 74.2,88 80.8,93.9 C81.3,94.3 81.8,94.8 82.4,95 C82.9,95.1 83.6,94.9 84.2,94.8 C84.1,94.2 84.2,93.4 83.8,93 C83,92.1 82,91.4 81.2,90.7 C77.8,87.8 74.4,84.9 71.1,81.9 C67.8,79 64.5,76 61.3,73 C59.4,71.2 59.3,70.4 61.2,67.9 C61.8,68.4 62.3,68.8 62.9,69.3 C66.3,72.4 69.7,75.5 73.2,78.6 C74,79.3 75,80.4 75.9,79.2 C76.8,78.1 75.7,77.3 74.9,76.6 C71.1,73.2 67.3,69.7 63.4,66.2 C62.5,65.4 62.4,64.7 63.1,63.6 C69.2,53.3 77.1,44.7 86.6,37.6 C90.4,34.8 94.4,32.3 98.5,30 C101.6,28.3 105,27.1 108.6,27.3 C110.4,27.4 112,27.9 113.2,29.3 C117.9,34.5 122.7,39.5 127.2,44.9 C130.5,48.9 133,53.5 133.7,58.9 C134,61.8 133.2,64.9 132.2,68 Z" id="Shape"></path>
            <path d="M19.5,67.5 C19.5,67.5 19.4,67.5 19.4,67.5 L15.5,66.5 C15.4,66.5 15.3,66.4 15.2,66.3 C15.1,66.2 15.1,66.1 15.2,66 L16,62.8 C16.1,62.6 16.3,62.4 16.5,62.5 L20.4,63.5 C20.6,63.6 20.8,63.8 20.7,64 L19.9,67.2 C19.9,67.4 19.7,67.5 19.5,67.5 Z M16.2,65.8 L19.3,66.6 L19.9,64.2 L16.8,63.4 L16.2,65.8 Z" id="Shape"></path>
            <path d="M11.2,65.4 C11.2,65.4 11.1,65.4 11.1,65.4 L7.2,64.4 C7,64.3 6.8,64.1 6.9,63.9 L7.7,60.7 C7.7,60.6 7.8,60.5 7.9,60.4 C8,60.3 8.1,60.3 8.2,60.4 L12.1,61.4 C12.3,61.5 12.5,61.7 12.4,61.9 L11.6,65.1 C11.6,65.2 11.5,65.3 11.4,65.4 C11.4,65.3 11.3,65.4 11.2,65.4 Z M7.9,63.6 L11,64.4 L11.6,62 L8.5,61.2 L7.9,63.6 Z" id="Shape"></path>
        </g>
    </g>
</svg>